<svg width="36" height="48" viewBox="0 0 36 48" fill="none" xmlns="http://www.w3.org/2000/svg">
<path d="M0 2C0 0.895432 0.895431 0 2 0H26.1716C26.702 0 27.2107 0.210714 27.5858 0.585786L35.4142 8.41421C35.7893 8.78929 36 9.29799 36 9.82843V46C36 47.1046 35.1046 48 34 48H2C0.895432 48 0 47.1046 0 46V2Z" fill="#2A5699"/>
<path d="M26 11H32.5858C33.4767 11 33.9229 9.92286 33.2929 9.29289L26.7071 2.70711C26.0771 2.07714 25 2.52331 25 3.41421V10C25 10.5523 25.4477 11 26 11Z" fill="white"/>
<path d="M6.79131 42.0781C6.57588 42.0781 6.39122 42.0024 6.23734 41.8508C6.08345 41.6993 6.0077 41.5147 6.01006 41.2969C6.0077 41.0838 6.08345 40.9015 6.23734 40.75C6.39122 40.5985 6.57588 40.5227 6.79131 40.5227C6.99965 40.5227 7.18075 40.5985 7.33464 40.75C7.49089 40.9015 7.5702 41.0838 7.57256 41.2969C7.5702 41.4413 7.53232 41.5727 7.45893 41.691C7.3879 41.8094 7.29321 41.9041 7.17484 41.9751C7.05883 42.0438 6.93099 42.0781 6.79131 42.0781Z" fill="white"/>
<path d="M11.4211 42H8.95662V34.7273H11.4708C12.1929 34.7273 12.8132 34.8729 13.3316 35.1641C13.8525 35.4529 14.2525 35.8684 14.5319 36.4105C14.8113 36.9526 14.9509 37.6013 14.9509 38.3565C14.9509 39.1141 14.8101 39.7651 14.5284 40.3097C14.249 40.8542 13.8454 41.272 13.3174 41.5632C12.7918 41.8544 12.1597 42 11.4211 42ZM10.2741 40.8601H11.3572C11.8638 40.8601 12.2864 40.7678 12.6249 40.5831C12.9635 40.3961 13.218 40.1179 13.3884 39.7486C13.5589 39.3769 13.6441 38.9129 13.6441 38.3565C13.6441 37.8002 13.5589 37.3385 13.3884 36.9716C13.218 36.6023 12.9659 36.3265 12.632 36.1442C12.3006 35.9595 11.8887 35.8672 11.3962 35.8672H10.2741V40.8601Z" fill="white"/>
<path d="M22.7013 38.3636C22.7013 39.1473 22.5545 39.8184 22.261 40.3771C21.9698 40.9335 21.572 41.3596 21.0678 41.6555C20.5659 41.9515 19.9965 42.0994 19.3597 42.0994C18.7228 42.0994 18.1523 41.9515 17.648 41.6555C17.1461 41.3572 16.7484 40.9299 16.4548 40.3736C16.1636 39.8149 16.0181 39.1449 16.0181 38.3636C16.0181 37.58 16.1636 36.91 16.4548 36.3537C16.7484 35.795 17.1461 35.3677 17.648 35.0717C18.1523 34.7758 18.7228 34.6278 19.3597 34.6278C19.9965 34.6278 20.5659 34.7758 21.0678 35.0717C21.572 35.3677 21.9698 35.795 22.261 36.3537C22.5545 36.91 22.7013 37.58 22.7013 38.3636ZM21.3767 38.3636C21.3767 37.812 21.2903 37.3468 21.1175 36.968C20.947 36.5869 20.7103 36.2992 20.4073 36.1051C20.1042 35.9086 19.755 35.8104 19.3597 35.8104C18.9643 35.8104 18.6151 35.9086 18.3121 36.1051C18.0091 36.2992 17.7711 36.5869 17.5983 36.968C17.4279 37.3468 17.3426 37.812 17.3426 38.3636C17.3426 38.9152 17.4279 39.3816 17.5983 39.7628C17.7711 40.1416 18.0091 40.4292 18.3121 40.6257C18.6151 40.8198 18.9643 40.9169 19.3597 40.9169C19.755 40.9169 20.1042 40.8198 20.4073 40.6257C20.7103 40.4292 20.947 40.1416 21.1175 39.7628C21.2903 39.3816 21.3767 38.9152 21.3767 38.3636Z" fill="white"/>
<path d="M30.172 37.1811H28.8439C28.806 36.9633 28.7362 36.7704 28.6344 36.6023C28.5326 36.4318 28.4059 36.2874 28.2544 36.169C28.1029 36.0507 27.93 35.9619 27.7359 35.9027C27.5442 35.8411 27.337 35.8104 27.1145 35.8104C26.7191 35.8104 26.3687 35.9098 26.0633 36.1087C25.7579 36.3052 25.5188 36.594 25.346 36.9751C25.1732 37.3539 25.0868 37.8168 25.0868 38.3636C25.0868 38.92 25.1732 39.3887 25.346 39.7699C25.5212 40.1487 25.7603 40.4351 26.0633 40.6293C26.3687 40.821 26.7179 40.9169 27.1109 40.9169C27.3287 40.9169 27.5323 40.8885 27.7217 40.8317C27.9135 40.7725 28.0851 40.6861 28.2366 40.5724C28.3905 40.4588 28.5195 40.3191 28.6237 40.1534C28.7302 39.9877 28.8036 39.7983 28.8439 39.5852L30.172 39.5923C30.1223 39.938 30.0146 40.2623 29.8488 40.5653C29.6855 40.8684 29.4712 41.1359 29.2061 41.3679C28.9409 41.5975 28.6308 41.7775 28.2757 41.9077C27.9206 42.0355 27.5264 42.0994 27.0932 42.0994C26.454 42.0994 25.8834 41.9515 25.3815 41.6555C24.8796 41.3596 24.4843 40.9323 24.1954 40.3736C23.9066 39.8149 23.7622 39.1449 23.7622 38.3636C23.7622 37.58 23.9078 36.91 24.199 36.3537C24.4902 35.795 24.8867 35.3677 25.3886 35.0717C25.8905 34.7758 26.4587 34.6278 27.0932 34.6278C27.498 34.6278 27.8744 34.6847 28.2224 34.7983C28.5704 34.9119 28.8806 35.0788 29.1528 35.299C29.4251 35.5168 29.6488 35.7843 29.824 36.1016C30.0015 36.4164 30.1175 36.7763 30.172 37.1811Z" fill="white"/>
</svg>
