<svg width="36" height="48" viewBox="0 0 36 48" fill="none" xmlns="http://www.w3.org/2000/svg">
<path d="M0 2C0 0.895432 0.895431 0 2 0H26.1716C26.702 0 27.2107 0.210714 27.5858 0.585786L35.4142 8.41421C35.7893 8.78929 36 9.29799 36 9.82843V46C36 47.1046 35.1046 48 34 48H2C0.895432 48 0 47.1046 0 46V2Z" fill="#EF4836"/>
<path d="M26 11H32.5858C33.4767 11 33.9229 9.92286 33.2929 9.29289L26.7071 2.70711C26.0771 2.07714 25 2.52331 25 3.41421V10C25 10.5523 25.4477 11 26 11Z" fill="white"/>
<path d="M8.23174 42.0781C8.01631 42.0781 7.83165 42.0024 7.67777 41.8509C7.52388 41.6993 7.44813 41.5147 7.45049 41.2969C7.44813 41.0838 7.52388 40.9015 7.67777 40.75C7.83165 40.5985 8.01631 40.5227 8.23174 40.5227C8.44008 40.5227 8.62118 40.5985 8.77507 40.75C8.93132 40.9015 9.01063 41.0838 9.01299 41.2969C9.01063 41.4413 8.97275 41.5727 8.89936 41.6911C8.82833 41.8094 8.73364 41.9041 8.61527 41.9751C8.49926 42.0438 8.37142 42.0781 8.23174 42.0781Z" fill="white"/>
<path d="M10.397 42V34.7273H13.1243C13.683 34.7273 14.1518 34.8314 14.5306 35.0398C14.9117 35.2481 15.1994 35.5346 15.3935 35.8991C15.59 36.2614 15.6882 36.6733 15.6882 37.1349C15.6882 37.6013 15.59 38.0156 15.3935 38.3778C15.197 38.7401 14.907 39.0253 14.5235 39.2337C14.1399 39.4396 13.6676 39.5426 13.1066 39.5426H11.299V38.4595H12.929C13.2557 38.4595 13.5232 38.4027 13.7316 38.2891C13.9399 38.1754 14.0938 38.0192 14.1932 37.8203C14.295 37.6214 14.3459 37.393 14.3459 37.1349C14.3459 36.8769 14.295 36.6496 14.1932 36.4531C14.0938 36.2566 13.9387 36.1039 13.728 35.995C13.5197 35.8838 13.251 35.8281 12.9219 35.8281H11.7145V42H10.397Z" fill="white"/>
<path d="M19.2971 42H16.8326V34.7273H19.3468C20.0689 34.7273 20.6891 34.8729 21.2076 35.1641C21.7284 35.4529 22.1285 35.8684 22.4079 36.4105C22.6872 36.9527 22.8269 37.6013 22.8269 38.3565C22.8269 39.1141 22.6861 39.7652 22.4043 40.3097C22.125 40.8542 21.7213 41.272 21.1934 41.5632C20.6678 41.8544 20.0357 42 19.2971 42ZM18.1501 40.8601H19.2332C19.7398 40.8601 20.1624 40.7678 20.5009 40.5831C20.8395 40.3961 21.094 40.1179 21.2644 39.7486C21.4349 39.3769 21.5201 38.9129 21.5201 38.3565C21.5201 37.8002 21.4349 37.3385 21.2644 36.9716C21.094 36.6023 20.8418 36.3265 20.508 36.1442C20.1766 35.9595 19.7646 35.8672 19.2722 35.8672H18.1501V40.8601Z" fill="white"/>
<path d="M24.0787 42V34.7273H28.7378V35.8317H25.3962V37.8061H28.4182V38.9105H25.3962V42H24.0787Z" fill="white"/>
</svg>
