<svg width="36" height="48" viewBox="0 0 36 48" fill="none" xmlns="http://www.w3.org/2000/svg">
<path d="M0 2C0 0.895432 0.895431 0 2 0H26.1716C26.702 0 27.2107 0.210714 27.5858 0.585786L35.4142 8.41421C35.7893 8.78929 36 9.29799 36 9.82843V46C36 47.1046 35.1046 48 34 48H2C0.895432 48 0 47.1046 0 46V2Z" fill="#CB4A32"/>
<path d="M26 11H32.5858C33.4767 11 33.9229 9.92286 33.2929 9.29289L26.7071 2.70711C26.0771 2.07714 25 2.52331 25 3.41421V10C25 10.5523 25.4477 11 26 11Z" fill="white"/>
<path d="M8.26592 42.0781C8.05049 42.0781 7.86583 42.0024 7.71195 41.8508C7.55806 41.6993 7.48231 41.5147 7.48467 41.2969C7.48231 41.0838 7.55806 40.9015 7.71195 40.75C7.86583 40.5985 8.05049 40.5227 8.26592 40.5227C8.47426 40.5227 8.65536 40.5985 8.80925 40.75C8.9655 40.9015 9.04481 41.0838 9.04717 41.2969C9.04481 41.4413 9.00693 41.5727 8.93354 41.691C8.86251 41.8094 8.76782 41.9041 8.64945 41.9751C8.53344 42.0438 8.4056 42.0781 8.26592 42.0781Z" fill="white"/>
<path d="M10.4312 42V34.7273H13.1585C13.7172 34.7273 14.186 34.8314 14.5648 35.0398C14.9459 35.2481 15.2335 35.5346 15.4277 35.8991C15.6242 36.2614 15.7224 36.6733 15.7224 37.1349C15.7224 37.6013 15.6242 38.0156 15.4277 38.3778C15.2312 38.74 14.9412 39.0253 14.5576 39.2337C14.1741 39.4396 13.7018 39.5426 13.1407 39.5426H11.3332V38.4595H12.9632C13.2899 38.4595 13.5574 38.4027 13.7657 38.2891C13.9741 38.1754 14.128 38.0192 14.2274 37.8203C14.3292 37.6214 14.3801 37.393 14.3801 37.1349C14.3801 36.8769 14.3292 36.6496 14.2274 36.4531C14.128 36.2566 13.9729 36.1039 13.7622 35.995C13.5539 35.8838 13.2852 35.8281 12.9561 35.8281H11.7487V42H10.4312Z" fill="white"/>
<path d="M16.8668 42V34.7273H19.594C20.1528 34.7273 20.6215 34.8314 21.0003 35.0398C21.3815 35.2481 21.6691 35.5346 21.8632 35.8991C22.0597 36.2614 22.158 36.6733 22.158 37.1349C22.158 37.6013 22.0597 38.0156 21.8632 38.3778C21.6667 38.74 21.3767 39.0253 20.9932 39.2337C20.6097 39.4396 20.1374 39.5426 19.5763 39.5426H17.7688V38.4595H19.3987C19.7254 38.4595 19.993 38.4027 20.2013 38.2891C20.4096 38.1754 20.5635 38.0192 20.6629 37.8203C20.7647 37.6214 20.8156 37.393 20.8156 37.1349C20.8156 36.8769 20.7647 36.6496 20.6629 36.4531C20.5635 36.2566 20.4084 36.1039 20.1977 35.995C19.9894 35.8838 19.7207 35.8281 19.3916 35.8281H18.1842V42H16.8668Z" fill="white"/>
<path d="M22.9827 35.8317V34.7273H28.7853V35.8317H26.5374V42H25.2306V35.8317H22.9827Z" fill="white"/>
</svg>
