<svg width="36" height="48" viewBox="0 0 36 48" fill="none" xmlns="http://www.w3.org/2000/svg">
<path d="M0 2C0 0.895432 0.895431 0 2 0H26.1716C26.702 0 27.2107 0.210714 27.5858 0.585786L35.4142 8.41421C35.7893 8.78929 36 9.29799 36 9.82843V46C36 47.1046 35.1046 48 34 48H2C0.895432 48 0 47.1046 0 46V2Z" fill="#18714A"/>
<path d="M26 11H32.5858C33.4767 11 33.9229 9.92286 33.2929 9.29289L26.7071 2.70711C26.0771 2.07714 25 2.52331 25 3.41421V10C25 10.5523 25.4477 11 26 11Z" fill="white"/>
<path d="M5.01882 42.0781C4.80339 42.0781 4.61873 42.0024 4.46484 41.8509C4.31096 41.6993 4.2352 41.5147 4.23757 41.2969C4.2352 41.0838 4.31096 40.9015 4.46484 40.75C4.61873 40.5985 4.80339 40.5227 5.01882 40.5227C5.22715 40.5227 5.40826 40.5985 5.56215 40.75C5.7184 40.9015 5.7977 41.0838 5.80007 41.2969C5.7977 41.4413 5.75982 41.5727 5.68643 41.6911C5.61541 41.8094 5.52071 41.9041 5.40234 41.9751C5.28634 42.0438 5.1585 42.0781 5.01882 42.0781Z" fill="white"/>
<path d="M8.28498 34.7273L9.88654 37.3906H9.94336L11.552 34.7273H13.0542L10.8134 38.3636L13.0897 42H11.5627L9.94336 39.3544H9.88654L8.26722 42H6.74734L9.04492 38.3636L6.77575 34.7273H8.28498Z" fill="white"/>
<path d="M14.0884 42V34.7273H15.4059V40.8956H18.609V42H14.0884Z" fill="white"/>
<path d="M23.7049 36.7266C23.6718 36.4164 23.5321 36.175 23.2859 36.0021C23.042 35.8293 22.7248 35.7429 22.3342 35.7429C22.0595 35.7429 21.824 35.7843 21.6275 35.8672C21.431 35.95 21.2807 36.0625 21.1765 36.2045C21.0723 36.3466 21.0191 36.5088 21.0167 36.6911C21.0167 36.8426 21.051 36.974 21.1197 37.0852C21.1907 37.1965 21.2866 37.2912 21.4073 37.3693C21.5281 37.4451 21.6618 37.509 21.8086 37.5611C21.9554 37.6132 22.1033 37.657 22.2525 37.6925L22.9343 37.8629C23.2089 37.9268 23.4729 38.0133 23.7262 38.1222C23.9819 38.2311 24.2103 38.3684 24.4116 38.5341C24.6152 38.6998 24.7762 38.8999 24.8945 39.1342C25.0129 39.3686 25.0721 39.6432 25.0721 39.9581C25.0721 40.3842 24.9632 40.7595 24.7454 41.0838C24.5276 41.4058 24.2127 41.6579 23.8008 41.8402C23.3912 42.0201 22.8952 42.1101 22.3129 42.1101C21.747 42.1101 21.2558 42.0225 20.8391 41.8473C20.4248 41.6721 20.1005 41.4164 19.8661 41.0803C19.6341 40.7441 19.5086 40.3345 19.4897 39.8516H20.7859C20.8048 40.1049 20.8829 40.3156 21.0202 40.4837C21.1576 40.6518 21.3363 40.7772 21.5565 40.8601C21.779 40.9429 22.0276 40.9844 22.3022 40.9844C22.5887 40.9844 22.8396 40.9418 23.055 40.8565C23.2728 40.7689 23.4433 40.6482 23.5664 40.4943C23.6895 40.3381 23.7522 40.1558 23.7546 39.9474C23.7522 39.7581 23.6966 39.6018 23.5877 39.4787C23.4788 39.3532 23.3261 39.2491 23.1296 39.1662C22.9355 39.081 22.7082 39.0052 22.4478 38.9389L21.6204 38.7259C21.0214 38.572 20.5479 38.3388 20.1999 38.0263C19.8543 37.7114 19.6815 37.2936 19.6815 36.7727C19.6815 36.3442 19.7975 35.969 20.0295 35.647C20.2638 35.3251 20.5823 35.0753 20.9847 34.8977C21.3872 34.7178 21.8429 34.6278 22.3519 34.6278C22.868 34.6278 23.3202 34.7178 23.7085 34.8977C24.0991 35.0753 24.4057 35.3227 24.6282 35.6399C24.8507 35.9548 24.9656 36.317 24.9727 36.7266H23.7049Z" fill="white"/>
<path d="M27.3475 34.7273L28.949 37.3906H29.0059L30.6145 34.7273H32.1167L29.8759 38.3636L32.1522 42H30.6252L29.0059 39.3544H28.949L27.3297 42H25.8098L28.1074 38.3636L25.8382 34.7273H27.3475Z" fill="white"/>
</svg>
