<svg width="36" height="48" viewBox="0 0 36 48" fill="none" xmlns="http://www.w3.org/2000/svg">
<path d="M0 2C0 0.895432 0.895431 0 2 0H26.1716C26.702 0 27.2107 0.210714 27.5858 0.585786L35.4142 8.41421C35.7893 8.78929 36 9.29799 36 9.82843V46C36 47.1046 35.1046 48 34 48H2C0.895432 48 0 47.1046 0 46V2Z" fill="#40C24C"/>
<path d="M26 11H32.5858C33.4767 11 33.9229 9.92286 33.2929 9.29289L26.7071 2.70711C26.0771 2.07714 25 2.52331 25 3.41421V10C25 10.5523 25.4477 11 26 11Z" fill="white"/>
<path d="M10.1507 42.0781C9.93525 42.0781 9.75059 42.0024 9.59671 41.8508C9.44283 41.6993 9.36707 41.5147 9.36944 41.2969C9.36707 41.0838 9.44283 40.9015 9.59671 40.75C9.75059 40.5985 9.93525 40.5227 10.1507 40.5227C10.359 40.5227 10.5401 40.5985 10.694 40.75C10.8503 40.9015 10.9296 41.0838 10.9319 41.2969C10.9296 41.4413 10.8917 41.5727 10.8183 41.691C10.7473 41.8094 10.6526 41.9041 10.5342 41.9751C10.4182 42.0438 10.2904 42.0781 10.1507 42.0781Z" fill="white"/>
<path d="M12.1811 42V41.1797L15.9097 35.8317H12.1597V34.7273H17.5433V35.5476L13.8181 40.8956H17.5646V42H12.1811Z" fill="white"/>
<path d="M20.1569 34.7273V42H18.8394V34.7273H20.1569Z" fill="white"/>
<path d="M21.5836 42V34.7273H24.3108C24.8696 34.7273 25.3383 34.8314 25.7171 35.0398C26.0983 35.2481 26.3859 35.5346 26.58 35.8991C26.7765 36.2614 26.8748 36.6733 26.8748 37.1349C26.8748 37.6013 26.7765 38.0156 26.58 38.3778C26.3835 38.74 26.0935 39.0253 25.71 39.2337C25.3265 39.4396 24.8542 39.5426 24.2931 39.5426H22.4856V38.4595H24.1155C24.4422 38.4595 24.7098 38.4027 24.9181 38.2891C25.1264 38.1754 25.2803 38.0192 25.3797 37.8203C25.4815 37.6214 25.5324 37.393 25.5324 37.1349C25.5324 36.8769 25.4815 36.6496 25.3797 36.4531C25.2803 36.2566 25.1252 36.1039 24.9145 35.995C24.7062 35.8838 24.4375 35.8281 24.1084 35.8281H22.901V42H21.5836Z" fill="white"/>
</svg>
